/* XPM */
static char *dummy[]={
"49 16 6 1",
"b c #000000",
"d c #333333",
"c c #666666",
"a c #999999",
". c #c0c0c0",
"# c #cccccc",
".................................................",
".#aaa.......................................#aa#.",
".abca..#cc...cc#.addddda.#da..#ca.ac...#c#..#cdc.",
".ab....abb#.#bb#.cdcccca.abd#.#da.ab...#b#....cc.",
".ab....adda.add#.cc......abda.#da.ab...#b#....cc.",
".ab....adac.dad#.cc......adcd.#da.ab...#b#....cc.",
".ab....ad#dad#d#.cdcccc#.adad##da.ab...#b#....cc.",
".ab....ad#cdc#d#.cdcccc#.ad#cc#da.ab...#b#....cc.",
".ab....ad#ab##d#.cc......ad##dada.ab...#b#....cc.",
".ab....ad#.#.#d#.cc......ad#.dcda.ab...#b#....cc.",
".ab....ad#...#d#.cc......ad#.adda.ab#..ad#....cc.",
".ab....ad#...#d#.cdaaaa#.ad#.#dba.#dcaadc.....cc.",
".ab....ad#...#d#.cbddddc.ad#..cba..#cddc#.....cc.",
".aba#.......................................#adc.",
".#cca.......................................#cca.",
"................................................."};
