/* XPM */
static char *close_xpm[] = {
"16 40 2 1",
" 	c #808080",
".	c #000000",

"                ",
"                ",
"                ",
"                ",
"                ",
"  ...      ...  ",
"   ...    ...   ",
"    ...  ...    ",
"     ......     ",
"      ....      ",
"      ....      ",
"     ......     ",
"    ...  ...    ",
"   ...    ...   ",
"  ...      ...  ",
"                ",
"                ",
"                ",
"                ",
"                ",
"                ",
"                ",
"                ",
"                ",
"                ",
"                ",
"  ...      ...  ",
"   ...    ...   ",
"    ...  ...    ",
"     ......     ",
"      ....      ",
"      ....      ",
"     ......     ",
"    ...  ...    ",
"   ...    ...   ",
"  ...      ...  ",
"                ",
"                ",
"                ",
"                ",
"                "};
