/* XPM */
static char *icewm[] = {
/* columns rows colors chars-per-pixel */
"40 20 239 2 ",
"   c #02920292028F",
".  c #045B045B0459",
"X  c #052405260527",
"o  c #061A061A0618",
"O  c #06CB06CC06CD",
"+  c #087D087C0881",
"@  c #091009120918",
"#  c #0A380A3C0A3C",
"$  c #0B0D0B0E0B0F",
"%  c #0C1F0C1F0C25",
"&  c #0CD30CD30CDD",
"*  c #0E270E250E3E",
"=  c #0F320F350F39",
"-  c #103310331048",
";  c #10E610ED10EB",
":  c #11F511F81205",
">  c #131A1323132F",
",  c #13EB13EC13EA",
"<  c #15011502150B",
"1  c #166E166E1677",
"2  c #16FC16FE1702",
"3  c #17D617D617D5",
"4  c #1888188918AB",
"5  c #18A218A1189F",
"6  c #1A1E1A1D1A28",
"7  c #1B661B661B94",
"8  c #1C141C141C19",
"9  c #1FFF20062010",
"0  c #217621762194",
"q  c #257C257B2584",
"w  c #25BE25BC25B5",
"e  c #281A281A2815",
"r  c #291E291E292C",
"t  c #29A229AD29B8",
"y  c #2B4B2B4A2B4F",
"u  c #2C912C912C91",
"i  c #2C9B2C9B2CB1",
"p  c #2CA52CB32CE2",
"a  c #2D1A2D1B2D26",
"s  c #2F112F102F38",
"d  c #304E304E306B",
"f  c #342B342A3448",
"g  c #358035803595",
"h  c #361436143620",
"j  c #375937583774",
"k  c #39203929394B",
"l  c #39DD39DC3A04",
"z  c #3D733D733D98",
"x  c #3DA13D9F3DBE",
"c  c #3F0D3F0D3F2A",
"v  c #407B40C340F1",
"b  c #41BB41BB41CC",
"n  c #426742674286",
"m  c #43D443EE43ED",
"M  c #44B744B744FA",
"N  c #44BD44C744EE",
"B  c #4599459945B9",
"V  c #467946794679",
"C  c #47EA47EA4826",
"Z  c #495649564959",
"A  c #499B49B849EC",
"S  c #4C0E4C0F4C31",
"D  c #4D324D354D76",
"F  c #4DCC4DCC4DFD",
"G  c #4E3F4E484E63",
"H  c #4FE64FFE5021",
"J  c #526B526B5294",
"K  c #5407542B5466",
"L  c #567F567D5697",
"P  c #57B357B357E9",
"I  c #58F958F95918",
"U  c #5C605C615C9C",
"Y  c #5D815D815D9B",
"T  c #6339633A6364",
"R  c #64AB64C164D7",
"E  c #664B66496659",
"W  c #692169306988",
"Q  c #69CC69CC6A0D",
"!  c #6A2F6A2E6A7A",
"~  c #6C7C6C7C6CB0",
"^  c #6D376D6D6D85",
"/  c #6E8A6E946EAE",
"(  c #706D706D70B9",
")  c #70E270E17102",
"_  c #710F71177161",
"`  c #726F726D7296",
"'  c #73E773E67401",
"]  c #7444744B7464",
"[  c #7548754F7589",
"{  c #785678597881",
"}  c #78F378F3791A",
"|  c #7AC07ABF7B07",
" . c #7E077E077E51",
".. c #80418041806D",
"X. c #81D481D481E4",
"o. c #829B82B682B6",
"O. c #837C837C8384",
"+. c #87438763876F",
"@. c #88EB88FC8952",
"#. c #8A678A7E8A7C",
"$. c #8CF28D058D4D",
"%. c #8FE08FE09048",
"&. c #911A913B9176",
"*. c #920C922292A1",
"=. c #92A492B1931E",
"-. c #960096009651",
";. c #97529751977A",
":. c #98FA98FA9960",
">. c #991299459944",
",. c #9AC89AC69B5F",
"<. c #9CDC9CDC9D0B",
"1. c #9C9D9C9D9D2D",
"2. c #9CF99D209D5E",
"3. c #9D999DA79E22",
"4. c #A025A043A0D8",
"5. c #A0F7A0F6A164",
"6. c #A1D2A1D2A216",
"7. c #A1C3A1C3A259",
"8. c #A1ACA228A23B",
"9. c #A22FA22FA22F",
"0. c #A3BDA3BDA3FF",
"q. c #A3DCA3DBA425",
"w. c #A566A566A5D4",
"e. c #A79FA7A6A802",
"r. c #A903A93DA93F",
"t. c #AAFDAAFDAB4B",
"y. c #AB70ABE0ABED",
"u. c #AC2FAC2FAC33",
"i. c #AE54AE54AE7D",
"p. c #AF57AF62AF89",
"a. c #AFF9AFF9B048",
"s. c #B0A8B0A7B0E2",
"d. c #B190B1B7B1C2",
"f. c #B419B421B489",
"g. c #B4A1B4B4B502",
"h. c #B53DB561B5AF",
"j. c #B6CAB6ECB76D",
"k. c #B984B9A2B9C2",
"l. c #BD7DBD7DBDB9",
"z. c #BDF9BDF9BE89",
"x. c #BF00BF00BEFC",
"c. c #BE96BE9CBF60",
"v. c #BF50BF6EBF7D",
"b. c #C099C099C0BF",
"n. c #C11AC119C17D",
"m. c #C324C361C37E",
"M. c #C3AFC3BDC3E4",
"N. c #C3C4C442C4D0",
"B. c #C4ADC4ADC4A9",
"V. c #C533C533C558",
"C. c #C5B8C5B8C5CB",
"Z. c #C5E9C602C695",
"A. c #C6DEC6FEC7A9",
"S. c #C726C759C7D1",
"D. c #C7A2C7A2C7C4",
"F. c #C7CEC7E7C896",
"G. c #C7FFC903C946",
"H. c #C84FC86CC8AD",
"J. c #C8FEC8FEC9C5",
"K. c #C989C988CA0C",
"L. c #CA0CCA0CCAA1",
"P. c #C96DCA68CA9A",
"I. c #CAB5CAB5CB0C",
"U. c #CABCCBB2CBD4",
"Y. c #CBB8CBC4CBDE",
"T. c #CBEFCBEFCC61",
"R. c #CC21CC9CCCD9",
"E. c #CCAACCAECCD8",
"W. c #CD1CCD1BCD83",
"Q. c #CDB7CDB8CDD0",
"!. c #CE09CE11CE8A",
"~. c #CE46CF85CFFA",
"^. c #CEDFCEE2CEF5",
"/. c #CEFECF09CF95",
"(. c #CEECCF89CFF0",
"). c #CFCCCFDACFEC",
"_. c #CFBDD007D0A9",
"`. c #CFF4D0ABD0DD",
"'. c #D0B7D0C4D0C4",
"]. c #D0E8D0F8D177",
"[. c #D0CDD207D215",
"{. c #D18CD1CBD202",
"}. c #D1C2D1F7D261",
"|. c #D247D27DD2A0",
" X c #D1C1D2FBD363",
".X c #D2CAD2D8D2FA",
"XX c #D30DD30DD37F",
"oX c #D2BBD38AD3BE",
"OX c #D3B6D3D8D406",
"+X c #D3E3D435D459",
"@X c #D3CDD48ED4DB",
"#X c #D4C4D4CAD4D5",
"$X c #D53FD540D56B",
"%X c #D506D5C6D63B",
"&X c #D5B0D5B1D5D5",
"*X c #D62FD638D6AA",
"=X c #D5E8D69AD6E3",
"-X c #D6A2D6A8D6EC",
";X c #D709D70BD7A6",
":X c #D70BD785D7C3",
">X c #D7ADD7ADD808",
",X c #D7F5D7F4D8B8",
"<X c #D892D893D8E2",
"1X c #D8D4D8DAD993",
"2X c #D9A4D9AAD9F2",
"3X c #DA29DA29DAAF",
"4X c #DA5ADA59DAC0",
"5X c #DAC7DAC7DB07",
"6X c #DADFDADFDB75",
"7X c #DBB5DBB5DBE8",
"8X c #DC29DC36DCBA",
"9X c #DC4EDC67DCD7",
"0X c #DCDADCD9DCE5",
"qX c #DD01DD01DD7B",
"wX c #DDBADDB9DDD5",
"eX c #DE29DE28DEA4",
"rX c #DEC0DEC0DEEA",
"tX c #DF42DF42DFCC",
"yX c #DF9EDFA0DFC5",
"uX c #DFFBDFFAE0D4",
"iX c #E0AFE0AFE0EC",
"pX c #E0F2E0F2E1A6",
"aX c #E1AEE1AEE216",
"sX c #E222E222E29B",
"dX c #E2A4E2A4E2ED",
"fX c #E31BE31BE388",
"gX c #E3DAE3D9E3EA",
"hX c #E455E456E4A6",
"jX c #E4A9E4A9E4C1",
"kX c #E518E51BE577",
"lX c #E5F3E5F3E5F8",
"zX c #E6E6E6E6E6E9",
"xX c #E7E3E7E3E7E4",
"cX c #E90BE90BE90D",
"vX c #E9C4E9C4E9C5",
"bX c #EADAEAD9EADA",
"nX c #EBF1EBF2EBF2",
"mX c #ECEBECEBECEB",
"MX c #EE14EE15EE15",
/* pixels */
"tXtXiXiXiXaXaXaXaXhXhXlXlXlXlXlXcXvXxXcXvXmXmXmXmXmXmXmXmXmXmXmXmXmXmXcXaXhXhX>X",
"tXtX0XtXiXiXaXkXjXjXlXlXhXhXxXlXlXlXxXcXbXmXmXmXmXmXmXmXmXmXmXmXmXmXmXhXuXpXhX%X",
"0XtXtXtXtX7Xj.@.` ` @.k.tXhXhXlXlXlXlXvX#Xw...] O.u.7XmXmXmXmXmXmXmXmXlXuXuXuX%X",
"0X0X7XtXH.T 2 @ < : @ 6 Q /.hXaXkXlXkX6.k % - 2 = % c u.mXmXmXmXmXmXmXhXtXtXuXOX",
"7X7XtXE.G O b =.f.f.=.z O U ,XhXhXhX-.< 8 [ a.x.i./ 2 8 w.mXbXmXmXmXmXhXeX7XeXOX",
"<X7X7X} O I E.iXuXuXaXP.V $ 1.hXhXl.q 9 r.lXcXcXbXcX9.2 u I.MXmXmXmXmXaX7X7XeXOX",
"<X7Xv.t r v.tX0XtXtXuXaX6.t { uXaX( O O.kXhXkXkXkXcXcX} . O.bXbXnXmXmXpX,X<X7X`.",
">X0X;.@ Q 7X0X0X9X9XtXtX7XV./.pX.Xg 9 V.lXhXhXkXkXkXcXv.6 m iXcXnXmXmXuX,X,X7X_.",
">X7X` O =.tX7X7X7X7X>X<X1X7X7XpXl.6 m 7XiXhXiXkXkXhXkX<Xk w E.bXcXcXvXtX>X1X,X/.",
"#X>XR @ 3.7X<X7X.X/ C G S G / OXf.: P tXiXiXhXkXdXdXkXiXS 6 V.cXcXcXvXpXOX>X>X/.",
"#X>XR @ ,.7X>X,X.XL q t e % s T.j.> J 0XiXiXiXiXhXhXdXrXZ 8 M.cXlXcXvXtX.X>X#X/.",
"#X<X} O  .7X>X>X>XP.V.V.B.V t T.m.9 l .XiXiXiXiXiXiXkX'.d y ^.lXjXlXvX9X.X.X#XT.",
".X>X3.% G `.>X>X>X,X7X7X/.g t P.>Xm , a.iXtX0XiXiXiXkXu.- L yXkXhXlXlX9X_..X#XT.",
".X.XM.j : 3.>X>X>X>X,X7X;.* s P.tX+.O Y <XiXiX0XiXaX#XL $ ;.kXgXhXjXlX9X_._..XP.",
"'..X.X$.* s 6..X>X,X.X6.s   s V.8XP.b $ ` I.yXiXiXH.W O G #XgXdXaXjXlX7X/./.).F.",
").'.'.E.` - < G ` [ H 6 V G t V.7X7Xg.l O f ~  .Q d O b v.iXiXiXaXaXlX7XT.T.).F.",
").).).'.I.%.z 2 = , y ( V.<.U P.1X>X7Xx./ y , = 2 s ] D.yXyXyXpXaXyXlX>XP.I.).F.",
").'.)./.'..XD.i.6.r.x.OX>XOXE.OX>X>X>X7X7XV.a.e.d.P.8X0XtXtXtXyXyXyXlX>XP.I.T.V.",
").).).).).)..X.XOX#XOXOXOXOX#X>X>X>X>X1X>X7X7XtXtXtX8X8X0X8XtXtXtXtXhX>XP.F.I.B.",
").'.)./.).'.).).).'.'..XOXOX#XOXOXOX>X>X>X>X>X>X>X8X7X7X8X8XtX8XtXtXaX>XD.F.P.B."
};
